<svg xmlns="http://www.w3.org/2000/svg" fill="none" viewBox="0 0 80 80"><g clip-path="url(#a)"><path fill="#2723FF" d="M0 0h79.766v79.766H0z"/><path fill="#fff" d="M33.116 42.055V30.573a.24.24 0 0 1 .242-.237H45.81c1.063 0 1.925.844 1.925 1.885v14.122c0 1.04-.862 1.884-1.925 1.884h-12.45a.24.24 0 0 1-.243-.237V45.88a.24.24 0 0 1 .242-.237h10.528c.529 0 .958-.42.958-.938V33.98a.948.948 0 0 0-.958-.938h-7.554a.24.24 0 0 0-.242.237v7.75a.237.237 0 0 1-.148.218l-2.49 1.026a.241.241 0 0 1-.336-.218Z"/><path fill="#fff" fill-rule="evenodd" d="M24.244 23a.241.241 0 0 0-.244.238v32.826c0 .132.11.239.244.239H40.34c.032 0 .064.006.093.018l11.542 4.66c.16.066.336-.05.336-.22v-4.22c0-.131.11-.238.244-.238h3.201a.241.241 0 0 0 .244-.239V23.24a.241.241 0 0 0-.244-.239H24.244Zm16.759 30.507a.248.248 0 0 0-.093-.018H27.118a.241.241 0 0 1-.244-.239V26.053c0-.132.11-.239.244-.239h25.764c.135 0 .244.107.244.239V53.25a.241.241 0 0 1-.244.239h-3.201a.241.241 0 0 0-.244.238v2.83c0 .17-.176.285-.336.22l-8.098-3.27Z" clip-rule="evenodd"/></g><defs><clipPath id="a"><path fill="#fff" d="M0 0h79.766v79.766H0z"/></clipPath></defs></svg>
